<?xml version="1.0" encoding="UTF-8"?>
<svg id="Layer_1" data-name="Layer 1" xmlns="http://www.w3.org/2000/svg" xmlns:xlink="http://www.w3.org/1999/xlink" viewBox="0 0 328.73 328.73">
  <defs>
    <style>
      .cls-1 {
        fill: url(#linear-gradient-2);
      }

      .cls-2 {
        fill: url(#linear-gradient);
      }

      .cls-3 {
        clip-path: url(#clippath);
      }
    </style>
    <linearGradient id="linear-gradient" x1="82.12" y1="164.36" x2="246.61" y2="164.36" gradientUnits="userSpaceOnUse">
      <stop offset=".12" stop-color="#0a2540"/>
      <stop offset=".25" stop-color="#0a2540"/>
      <stop offset=".27" stop-color="#0a2540"/>
      <stop offset=".34" stop-color="#193a45"/>
      <stop offset=".47" stop-color="#407352"/>
      <stop offset=".66" stop-color="#7ecd68"/>
      <stop offset=".75" stop-color="#9efa73"/>
      <stop offset="1" stop-color="#9efa73"/>
    </linearGradient>
    <clipPath id="clippath">
      <path class="cls-2" d="M198.88,81.92l-69.98.32c-3.35.01-6.04,2.74-6.03,6.08l.13,29.03c.01,3.34,2.74,6.04,6.08,6.03l69.98-.32c.11,0,.22,0,.34-.01,1.14-.07,2.25.43,2.99,1.3l2,2.36c.61.71.94,1.62.94,2.56h0s.13,29.14.13,29.14c0,.81-.26,1.59-.74,2.24l-1.56,2.08c-.7.93-1.78,1.47-2.94,1.48l-35.87.16-12.89.06-22.01.1-20.61.1-20.65.09c-3.38.01-6.1,2.77-6.09,6.15l.13,28.9c.02,3.38,2.77,6.1,6.15,6.09l28.51-.23c3.59-.03,6.52,2.86,6.53,6.45l.13,28.52c.01,3.45,2.82,6.23,6.27,6.21l28.65-.13c3.45-.02,6.23-2.83,6.22-6.27l-.13-28.65c-.02-3.45,2.77-6.26,6.21-6.27l28.65-.13c3.45-.02,6.23-2.82,6.21-6.27l-.13-28.5c0-.81.26-1.59.74-2.24l2.04-2.71c.7-.93,1.78-1.47,2.94-1.48l29.15-.13c3.45-.02,6.23-2.82,6.21-6.27l-.13-28.65c-.01-3.45-2.82-6.23-6.27-6.21l-28.65.13c-.16,0-.32,0-.48.02-1.21.1-2.41-.33-3.2-1.25l-1.73-2.04c-.61-.72-.93-1.63-.88-2.57,0-.12.01-.24.01-.37l-.13-28.65c-.01-3.44-2.81-6.21-6.24-6.21h-.03"/>
    </clipPath>
    <linearGradient id="linear-gradient-2" x1="-255.37" y1="462.04" x2="-254.37" y2="462.04" gradientTransform="translate(106765.61 193459.01) scale(418.35 -418.35)" gradientUnits="userSpaceOnUse">
      <stop offset=".29" stop-color="#0a2540"/>
      <stop offset=".36" stop-color="#0a2540"/>
      <stop offset=".37" stop-color="#0a2540"/>
      <stop offset=".42" stop-color="#193a45"/>
      <stop offset=".53" stop-color="#407352"/>
      <stop offset=".68" stop-color="#7ecd68"/>
      <stop offset=".75" stop-color="#9efa73"/>
      <stop offset="1" stop-color="#9efa73"/>
    </linearGradient>
  </defs>
  <path class="cls-2" d="M198.88,81.92l-69.98.32c-3.35.01-6.04,2.74-6.03,6.08l.13,29.03c.01,3.34,2.74,6.04,6.08,6.03l69.98-.32c.11,0,.22,0,.34-.01,1.14-.07,2.25.43,2.99,1.3l2,2.36c.61.71.94,1.62.94,2.56h0s.13,29.14.13,29.14c0,.81-.26,1.59-.74,2.24l-1.56,2.08c-.7.93-1.78,1.47-2.94,1.48l-35.87.16-12.89.06-22.01.1-20.61.1-20.65.09c-3.38.01-6.1,2.77-6.09,6.15l.13,28.9c.02,3.38,2.77,6.1,6.15,6.09l28.51-.23c3.59-.03,6.52,2.86,6.53,6.45l.13,28.52c.01,3.45,2.82,6.23,6.27,6.21l28.65-.13c3.45-.02,6.23-2.83,6.22-6.27l-.13-28.65c-.02-3.45,2.77-6.26,6.21-6.27l28.65-.13c3.45-.02,6.23-2.82,6.21-6.27l-.13-28.5c0-.81.26-1.59.74-2.24l2.04-2.71c.7-.93,1.78-1.47,2.94-1.48l29.15-.13c3.45-.02,6.23-2.82,6.21-6.27l-.13-28.65c-.01-3.45-2.82-6.23-6.27-6.21l-28.65.13c-.16,0-.32,0-.48.02-1.21.1-2.41-.33-3.2-1.25l-1.73-2.04c-.61-.72-.93-1.63-.88-2.57,0-.12.01-.24.01-.37l-.13-28.65c-.01-3.44-2.81-6.21-6.24-6.21h-.03"/>
  <g class="cls-3">
    <rect class="cls-1" x="48.01" y="48.03" width="232.7" height="232.68" transform="translate(-67.84 174.96) rotate(-47.61)"/>
  </g>
</svg>